<mxfile host="65bd71144e">
    <diagram id="gkjm8Z44lZ8rUPNJD4s0" name="Page-1">
        <mxGraphModel dx="1358" dy="588" grid="0" gridSize="10" guides="1" tooltips="1" connect="1" arrows="1" fold="1" page="1" pageScale="1" pageWidth="850" pageHeight="1100" math="0" shadow="0">
            <root>
                <mxCell id="0"/>
                <mxCell id="1" parent="0"/>
                <mxCell id="18" style="edgeStyle=none;html=1;exitX=0.5;exitY=1;exitDx=0;exitDy=0;shape=flexArrow;startArrow=block;" parent="1" source="32" edge="1">
                    <mxGeometry relative="1" as="geometry">
                        <mxPoint x="380" y="180" as="sourcePoint"/>
                        <mxPoint x="380" y="260" as="targetPoint"/>
                    </mxGeometry>
                </mxCell>
                <mxCell id="22" style="edgeStyle=none;html=1;exitX=1;exitY=1;exitDx=0;exitDy=0;startArrow=diamondThin;startFill=0;endArrow=diamondThin;endFill=0;entryX=0;entryY=0;entryDx=0;entryDy=0;" parent="1" source="32" target="38" edge="1">
                    <mxGeometry relative="1" as="geometry">
                        <mxPoint x="440" y="180" as="sourcePoint"/>
                        <mxPoint x="550" y="250" as="targetPoint"/>
                    </mxGeometry>
                </mxCell>
                <mxCell id="6" value="MySQL" style="shape=cylinder3;whiteSpace=wrap;html=1;boundedLbl=1;backgroundOutline=1;size=15;" parent="1" vertex="1">
                    <mxGeometry x="350" y="380" width="60" height="80" as="geometry"/>
                </mxCell>
                <mxCell id="14" style="edgeStyle=none;html=1;entryX=0;entryY=0.5;entryDx=0;entryDy=0;exitX=1;exitY=0.5;exitDx=0;exitDy=0;" parent="1" source="30" target="32" edge="1">
                    <mxGeometry relative="1" as="geometry">
                        <mxPoint x="195" y="130" as="sourcePoint"/>
                        <mxPoint x="320" y="135" as="targetPoint"/>
                    </mxGeometry>
                </mxCell>
                <mxCell id="15" style="edgeStyle=none;html=1;exitX=0;exitY=0.5;exitDx=0;exitDy=0;entryX=1;entryY=0.5;entryDx=0;entryDy=0;" parent="1" source="31" target="32" edge="1">
                    <mxGeometry relative="1" as="geometry">
                        <mxPoint x="565" y="130" as="sourcePoint"/>
                        <mxPoint x="440" y="135" as="targetPoint"/>
                    </mxGeometry>
                </mxCell>
                <mxCell id="30" value="User" style="rounded=0;whiteSpace=wrap;html=1;strokeColor=default;" parent="1" vertex="1">
                    <mxGeometry x="80" y="120" width="120" height="60" as="geometry"/>
                </mxCell>
                <mxCell id="31" value="Other User" style="rounded=0;whiteSpace=wrap;html=1;strokeColor=default;" parent="1" vertex="1">
                    <mxGeometry x="570" y="120" width="120" height="60" as="geometry"/>
                </mxCell>
                <mxCell id="32" value="Mobile System" style="ellipse;whiteSpace=wrap;html=1;rounded=0;strokeColor=default;" parent="1" vertex="1">
                    <mxGeometry x="320" y="100" width="120" height="80" as="geometry"/>
                </mxCell>
                <mxCell id="47" style="edgeStyle=none;html=1;exitX=0.5;exitY=1;exitDx=0;exitDy=0;entryX=0.5;entryY=0;entryDx=0;entryDy=0;entryPerimeter=0;startArrow=oval;startFill=1;endArrow=oval;endFill=1;" parent="1" source="37" target="6" edge="1">
                    <mxGeometry relative="1" as="geometry"/>
                </mxCell>
                <mxCell id="37" value="Server System" style="ellipse;whiteSpace=wrap;html=1;rounded=0;strokeColor=default;" parent="1" vertex="1">
                    <mxGeometry x="320" y="260" width="120" height="80" as="geometry"/>
                </mxCell>
                <mxCell id="48" style="edgeStyle=none;html=1;exitX=0;exitY=1;exitDx=0;exitDy=0;entryX=1;entryY=0;entryDx=0;entryDy=15;entryPerimeter=0;startArrow=oval;startFill=1;endArrow=oval;endFill=1;" parent="1" source="38" target="6" edge="1">
                    <mxGeometry relative="1" as="geometry"/>
                </mxCell>
                <mxCell id="38" value="Socket" style="ellipse;whiteSpace=wrap;html=1;rounded=0;strokeColor=default;" parent="1" vertex="1">
                    <mxGeometry x="520" y="270" width="120" height="80" as="geometry"/>
                </mxCell>
                <mxCell id="56" value="" style="group" parent="1" vertex="1" connectable="0">
                    <mxGeometry x="84" y="480" width="682" height="200" as="geometry"/>
                </mxCell>
                <mxCell id="25" value="" style="rounded=0;whiteSpace=wrap;html=1;container=0;" parent="56" vertex="1">
                    <mxGeometry width="682" height="200" as="geometry"/>
                </mxCell>
                <mxCell id="26" value="Legend" style="text;html=1;strokeColor=default;fillColor=none;align=center;verticalAlign=middle;whiteSpace=wrap;rounded=0;container=0;" parent="56" vertex="1">
                    <mxGeometry width="68.97196261682242" height="30" as="geometry"/>
                </mxCell>
                <mxCell id="28" value="" style="rounded=0;whiteSpace=wrap;html=1;strokeColor=default;container=0;" parent="56" vertex="1">
                    <mxGeometry x="22" y="60" width="78" height="40" as="geometry"/>
                </mxCell>
                <mxCell id="29" value="Entity" style="text;html=1;strokeColor=none;fillColor=none;align=center;verticalAlign=middle;whiteSpace=wrap;rounded=0;container=0;" parent="56" vertex="1">
                    <mxGeometry x="100" y="65" width="60" height="30" as="geometry"/>
                </mxCell>
                <mxCell id="41" value="A interact with B" style="text;html=1;strokeColor=none;fillColor=none;align=center;verticalAlign=middle;whiteSpace=wrap;rounded=0;container=0;" parent="56" vertex="1">
                    <mxGeometry x="555.6694459833795" y="70" width="103.90581717451524" height="30" as="geometry"/>
                </mxCell>
                <mxCell id="40" value="" style="endArrow=classic;html=1;" parent="56" target="41" edge="1">
                    <mxGeometry width="50" height="50" relative="1" as="geometry">
                        <mxPoint x="515.9963157894737" y="85" as="sourcePoint"/>
                        <mxPoint x="572.672216066482" y="85" as="targetPoint"/>
                    </mxGeometry>
                </mxCell>
                <mxCell id="42" value="" style="endArrow=classic;startArrow=classic;html=1;shape=flexArrow;" parent="56" target="43" edge="1">
                    <mxGeometry width="50" height="50" relative="1" as="geometry">
                        <mxPoint x="105.7950138504155" y="155" as="sourcePoint"/>
                        <mxPoint x="30.227146814404435" y="155" as="targetPoint"/>
                    </mxGeometry>
                </mxCell>
                <mxCell id="43" value="HTTP" style="text;html=1;strokeColor=none;fillColor=none;align=center;verticalAlign=middle;whiteSpace=wrap;rounded=0;container=0;" parent="56" vertex="1">
                    <mxGeometry x="171.9168975069252" y="140" width="56.67590027700831" height="30" as="geometry"/>
                </mxCell>
                <mxCell id="49" value="" style="endArrow=oval;startArrow=oval;html=1;startFill=1;endFill=1;" parent="56" target="50" edge="1">
                    <mxGeometry width="50" height="50" relative="1" as="geometry">
                        <mxPoint x="285.2686980609418" y="155" as="sourcePoint"/>
                        <mxPoint x="228.59279778393352" y="155" as="targetPoint"/>
                    </mxGeometry>
                </mxCell>
                <mxCell id="50" value="DB Connector" style="text;html=1;strokeColor=none;fillColor=none;align=center;verticalAlign=middle;whiteSpace=wrap;rounded=0;container=0;" parent="56" vertex="1">
                    <mxGeometry x="323.05263157894734" y="140" width="94.45983379501385" height="30" as="geometry"/>
                </mxCell>
                <mxCell id="35" value="" style="shape=cylinder3;whiteSpace=wrap;html=1;boundedLbl=1;backgroundOutline=1;size=15;rounded=0;strokeColor=default;container=0;" parent="56" vertex="1">
                    <mxGeometry x="366.00058171745155" y="47.5" width="45.340720221606645" height="65" as="geometry"/>
                </mxCell>
                <mxCell id="36" value="Database" style="text;html=1;strokeColor=none;fillColor=none;align=center;verticalAlign=middle;whiteSpace=wrap;rounded=0;container=0;" parent="56" vertex="1">
                    <mxGeometry x="422.67648199445983" y="70" width="56.67590027700831" height="30" as="geometry"/>
                </mxCell>
                <mxCell id="53" value="Socket Connector" style="text;html=1;strokeColor=none;fillColor=none;align=center;verticalAlign=middle;whiteSpace=wrap;rounded=0;container=0;" parent="56" vertex="1">
                    <mxGeometry x="493.08033240997224" y="140" width="103.90581717451524" height="30" as="geometry"/>
                </mxCell>
                <mxCell id="52" value="" style="endArrow=diamondThin;startArrow=diamondThin;html=1;startFill=0;endFill=0;" parent="56" target="53" edge="1">
                    <mxGeometry width="50" height="50" relative="1" as="geometry">
                        <mxPoint x="455.29639889196676" y="155" as="sourcePoint"/>
                        <mxPoint x="521.4182825484764" y="155" as="targetPoint"/>
                    </mxGeometry>
                </mxCell>
                <mxCell id="33" value="" style="ellipse;whiteSpace=wrap;html=1;rounded=0;strokeColor=default;container=0;" parent="56" vertex="1">
                    <mxGeometry x="195.64288088642655" y="60" width="73.6786703601108" height="40" as="geometry"/>
                </mxCell>
                <mxCell id="34" value="System" style="text;html=1;strokeColor=none;fillColor=none;align=center;verticalAlign=middle;whiteSpace=wrap;rounded=0;container=0;" parent="56" vertex="1">
                    <mxGeometry x="269.32155124653735" y="65" width="56.67590027700831" height="30" as="geometry"/>
                </mxCell>
            </root>
        </mxGraphModel>
    </diagram>
</mxfile>